<svg width="247" height="148" viewBox="0 0 247 148" fill="none" xmlns="http://www.w3.org/2000/svg">
<g clip-path="url(#clip0_38_154)">
<g clip-path="url(#clip1_38_154)">
<g clip-path="url(#clip2_38_154)">
<g clip-path="url(#clip3_38_154)">
<g clip-path="url(#clip4_38_154)">
<g clip-path="url(#clip5_38_154)">
<g clip-path="url(#clip6_38_154)">
<path d="M84.9939 64.2123V66.2732C84.0526 65.7074 82.9848 65.4246 81.7905 65.4246C81.0178 65.4246 80.4108 65.5889 79.9696 65.9176C79.5257 66.2489 79.3037 66.684 79.3037 67.2228C79.3037 67.7616 79.5214 68.1926 79.957 68.5159C80.3925 68.8391 81.0599 69.1894 81.9591 69.5665C82.5492 69.809 83.0101 70.0178 83.3416 70.1929C83.6704 70.368 84.0498 70.6131 84.4797 70.9283C84.9068 71.2462 85.2229 71.6234 85.4281 72.0598C85.6304 72.4989 85.7315 73.0013 85.7315 73.567C85.7315 74.7659 85.289 75.7087 84.4038 76.3957C83.5187 77.0827 82.3736 77.4261 80.9686 77.4261C79.409 77.4261 78.1164 77.1365 77.0908 76.5573V74.3954C78.2007 75.1901 79.4863 75.5875 80.9475 75.5875C81.7203 75.5875 82.3314 75.4151 82.781 75.0703C83.2306 74.7281 83.4554 74.254 83.4554 73.6479C83.4554 73.2842 83.322 72.9501 83.055 72.6457C82.7881 72.344 82.5 72.115 82.1909 71.9587C81.8818 71.8052 81.4182 71.5937 80.8 71.3243C80.4347 71.1627 80.179 71.0482 80.0329 70.9808C79.8839 70.9135 79.6409 70.7923 79.3037 70.6172C78.9665 70.4421 78.7178 70.2939 78.5576 70.1727C78.3946 70.0514 78.1937 69.8831 77.9549 69.6675C77.716 69.452 77.5446 69.2365 77.4406 69.021C77.3339 68.8055 77.2355 68.5522 77.1456 68.2613C77.0529 67.973 77.0065 67.6605 77.0065 67.3238C77.0065 66.1654 77.4463 65.2495 78.3258 64.576C79.2025 63.9025 80.3363 63.5657 81.7273 63.5657C83.0058 63.5657 84.0947 63.7812 84.9939 64.2123ZM92.6863 77.4665C91.1127 77.4665 89.8763 76.9749 88.9771 75.9916C88.0779 75.0083 87.6283 73.7624 87.6283 72.2537C87.6283 70.7182 88.0919 69.4412 89.0192 68.4229C89.9465 67.4073 91.1689 66.8995 92.6863 66.8995C94.3161 66.8995 95.5735 67.3938 96.4587 68.3825C97.3438 69.3739 97.7864 70.6374 97.7864 72.1729C97.7864 73.7085 97.3326 74.9746 96.425 75.9714C95.5202 76.9682 94.2739 77.4665 92.6863 77.4665ZM92.6652 68.5765C91.752 68.5765 91.0424 68.9227 90.5366 69.615C90.0308 70.31 89.7779 71.1694 89.7779 72.1931C89.7779 73.2034 90.0379 74.0546 90.5577 74.747C91.0776 75.442 91.7871 75.7896 92.6863 75.7896C93.6417 75.7896 94.3681 75.4528 94.8654 74.7793C95.3656 74.1058 95.6157 73.2505 95.6157 72.2133C95.6157 71.1492 95.3768 70.2764 94.8991 69.5948C94.4214 68.9159 93.6768 68.5765 92.6652 68.5765ZM101.643 72.2133C101.671 73.2505 102.001 74.1018 102.634 74.7672C103.266 75.4353 104.151 75.7694 105.289 75.7694C106.132 75.7694 106.917 75.5471 107.645 75.1026V76.8806C106.96 77.2847 106.082 77.4867 105.011 77.4867C103.342 77.4867 102.008 76.9816 101.011 75.9714C100.013 74.9612 99.5146 73.7017 99.5146 72.1931C99.5146 70.7249 100.016 69.4682 101.019 68.4229C102.025 67.3804 103.385 66.8591 105.099 66.8591C106.024 66.8591 106.873 67.0477 107.645 67.4248V69.2432C106.96 68.8257 106.181 68.6169 105.31 68.6169C104.197 68.6169 103.308 68.9536 102.642 69.6271C101.976 70.3006 101.643 71.1627 101.643 72.2133ZM120.375 64.2325V66.2732C119.756 65.9499 119.199 65.7236 118.701 65.5943C118.201 65.4677 117.565 65.4044 116.792 65.4044C115.373 65.4044 114.19 65.865 113.243 66.7864C112.293 67.7104 111.818 68.9334 111.818 70.4555C111.818 72.0045 112.289 73.237 113.23 74.153C114.172 75.0689 115.415 75.5269 116.96 75.5269C118.323 75.5269 119.468 75.1901 120.396 74.5167V76.6179C119.525 77.1702 118.316 77.4463 116.771 77.4463C114.649 77.4463 112.914 76.8133 111.565 75.5471C110.216 74.2809 109.542 72.5837 109.542 70.4555C109.542 68.3946 110.221 66.7177 111.578 65.4246C112.932 64.1315 114.649 63.4849 116.729 63.4849C118.246 63.4849 119.461 63.7341 120.375 64.2325ZM128.404 73.8701V72.7184H126.802C126.016 72.7184 125.423 72.8666 125.024 73.1629C124.622 73.4593 124.421 73.8364 124.421 74.2944C124.421 74.7659 124.576 75.1363 124.885 75.4057C125.194 75.6751 125.643 75.8098 126.233 75.8098C126.908 75.8098 127.439 75.6306 127.827 75.2723C128.212 74.9167 128.404 74.4493 128.404 73.8701ZM123.03 69.4857V67.5663C123.859 67.1083 124.955 66.8793 126.318 66.8793C129.114 66.8793 130.512 68.1791 130.512 70.7788V77.2847H128.467V76.0724C127.919 76.9345 126.957 77.3655 125.58 77.3655C124.568 77.3655 123.758 77.0853 123.148 76.525C122.535 75.9674 122.229 75.2575 122.229 74.3954C122.229 73.4121 122.616 72.6471 123.388 72.1002C124.161 71.556 125.243 71.2839 126.634 71.2839H128.404V70.698C128.404 69.9976 128.229 69.4682 127.877 69.1099C127.526 68.7543 126.943 68.5765 126.128 68.5765C124.99 68.5765 123.957 68.8796 123.03 69.4857ZM133.294 67.0409H135.359V68.8391C135.879 67.573 136.813 66.9399 138.162 66.9399C138.359 66.9399 138.576 66.9601 138.815 67.0005V68.9402C138.52 68.8189 138.19 68.7583 137.825 68.7583C137.108 68.7583 136.518 69.0614 136.054 69.6675C135.591 70.2737 135.359 70.9943 135.359 71.8294V77.2847H133.294V67.0409ZM149.074 71.5264L148.843 72.2133H153.395L153.163 71.5264C152.629 69.9369 152.194 68.6196 151.856 67.5743C151.519 66.5318 151.315 65.8825 151.245 65.6266L151.14 65.2427C150.985 65.8758 150.297 67.9703 149.074 71.5264ZM157.42 77.2847H155.102L153.985 73.9509H148.253L147.114 77.2847H144.817L149.728 63.6668H152.573L157.42 77.2847ZM161.066 72.2133C161.094 73.2505 161.424 74.1018 162.057 74.7672C162.689 75.4353 163.574 75.7694 164.712 75.7694C165.555 75.7694 166.342 75.5471 167.072 75.1026V76.8806C166.384 77.2847 165.506 77.4867 164.438 77.4867C162.766 77.4867 161.431 76.9816 160.434 75.9714C159.436 74.9612 158.938 73.7017 158.938 72.1931C158.938 70.7249 159.441 69.4682 160.447 68.4229C161.45 67.3804 162.808 66.8591 164.522 66.8591C165.45 66.8591 166.3 67.0477 167.072 67.4248V69.2432C166.384 68.8257 165.604 68.6169 164.733 68.6169C163.623 68.6169 162.735 68.9536 162.069 69.6271C161.401 70.3006 161.066 71.1627 161.066 72.2133ZM175.081 73.8701V72.7184H173.479C172.692 72.7184 172.098 72.8666 171.696 73.1629C171.297 73.4593 171.098 73.8364 171.098 74.2944C171.098 74.7659 171.252 75.1363 171.561 75.4057C171.871 75.6751 172.32 75.8098 172.91 75.8098C173.585 75.8098 174.114 75.6306 174.499 75.2723C174.887 74.9167 175.081 74.4493 175.081 73.8701ZM169.707 69.4857V67.5663C170.536 67.1083 171.632 66.8793 172.995 66.8793C175.791 66.8793 177.188 68.1791 177.188 70.7788V77.2847H175.144V76.0724C174.596 76.9345 173.634 77.3655 172.257 77.3655C171.245 77.3655 170.433 77.0853 169.821 76.525C169.211 75.9674 168.906 75.2575 168.906 74.3954C168.906 73.4121 169.292 72.6471 170.065 72.1002C170.838 71.556 171.92 71.2839 173.311 71.2839H175.081V70.698C175.081 69.9976 174.905 69.4682 174.554 69.1099C174.203 68.7543 173.62 68.5765 172.805 68.5765C171.667 68.5765 170.634 68.8796 169.707 69.4857ZM184.291 75.6885C185.106 75.6885 185.794 75.3922 186.356 74.7995C186.918 74.2069 187.199 73.3044 187.199 72.0921C187.199 70.9202 186.907 70.0514 186.322 69.4857C185.741 68.92 185.085 68.6371 184.354 68.6371C183.525 68.6371 182.844 68.9509 182.31 69.5786C181.776 70.2036 181.509 71.0953 181.509 72.2537C181.509 73.2774 181.772 74.1058 182.297 74.7389C182.825 75.372 183.49 75.6885 184.291 75.6885ZM187.199 68.5967V63H189.286V77.2847H187.199V75.7289C186.454 76.8604 185.366 77.4261 183.932 77.4261C182.527 77.4261 181.418 76.917 180.603 75.8987C179.788 74.883 179.38 73.6546 179.38 72.2133C179.38 70.6104 179.809 69.3241 180.666 68.3542C181.523 67.3844 182.626 66.8995 183.975 66.8995C185.366 66.8995 186.44 67.4652 187.199 68.5967ZM193.665 71.4253H198.828V71.0617C198.8 70.2939 198.582 69.6837 198.175 69.2311C197.767 68.7812 197.184 68.5563 196.426 68.5563C195.723 68.5563 195.119 68.8014 194.613 69.2917C194.107 69.7847 193.791 70.4959 193.665 71.4253ZM200.156 74.9612V76.7392C199.369 77.1702 198.329 77.3857 197.037 77.3857C195.379 77.3857 194.058 76.9075 193.075 75.9512C192.091 74.9948 191.6 73.7421 191.6 72.1931C191.6 70.5498 192.049 69.2594 192.948 68.3219C193.848 67.3871 194.993 66.9197 196.384 66.9197C197.746 66.9197 198.828 67.3265 199.629 68.1401C200.43 68.9563 200.83 70.1322 200.83 71.6678C200.83 72.0854 200.788 72.5231 200.704 72.9811H193.686C193.826 73.8701 194.22 74.5503 194.866 75.0218C195.512 75.4932 196.327 75.7289 197.311 75.7289C198.449 75.7289 199.397 75.473 200.156 74.9612ZM203.254 67.0409H205.319V68.6775C205.923 67.4922 206.928 66.8995 208.333 66.8995C209.935 66.8995 210.96 67.5595 211.41 68.8796C211.705 68.2465 212.134 67.7575 212.696 67.4127C213.258 67.0706 213.89 66.8995 214.592 66.8995C215.688 66.8995 216.521 67.2093 217.092 67.8289C217.659 68.4485 217.943 69.3039 217.943 70.3949V77.2847H215.878V70.8192C215.878 69.351 215.26 68.6169 214.023 68.6169C213.405 68.6169 212.854 68.8796 212.371 69.4049C211.885 69.9302 211.642 70.7047 211.642 71.7284V77.2847H209.576V70.8192C209.576 69.351 208.951 68.6169 207.701 68.6169C207.097 68.6169 206.549 68.8796 206.057 69.4049C205.565 69.9302 205.319 70.7047 205.319 71.7284V77.2847H203.254V67.0409ZM223.697 77.0624L219.44 67.0409H221.737L223.064 70.3747L224.729 74.6985C224.856 74.2944 225.362 72.8531 226.247 70.3747L227.448 67.0409H229.64L225.783 77.0018C224.757 79.6284 223.191 80.9417 221.083 80.9417C220.704 80.9417 220.381 80.9081 220.114 80.8407V79.1435C220.339 79.1974 220.578 79.2243 220.831 79.2243C222.193 79.2243 223.149 78.5037 223.697 77.0624Z" fill="white"/>
</g>
</g>
<g clip-path="url(#clip7_38_154)">
<g clip-path="url(#clip8_38_154)">
<path d="M78.1467 87.9553V93.5702H77V87.9316C77 87.1199 77.2737 86.458 77.8212 85.9457C78.367 85.4335 79.0427 85.1774 79.8482 85.1774C80.736 85.1774 81.4043 85.3925 81.8531 85.8228C82.3003 86.2515 82.5239 86.7771 82.5239 87.3997C82.5239 88.1956 82.1375 88.767 81.3648 89.1137V89.161C82.4252 89.4526 82.9554 90.1579 82.9554 91.2769C82.9554 92.8058 82.0142 93.5702 80.1318 93.5702H78.5906V92.53H80.1195C80.6867 92.53 81.1018 92.4196 81.3648 92.199C81.6279 91.9783 81.7594 91.6237 81.7594 91.1351C81.7594 90.7095 81.618 90.3825 81.3352 90.154C81.0508 89.9254 80.6661 89.8112 80.1812 89.8112H78.9605V88.83H79.7496C80.1935 88.83 80.5741 88.7134 80.8914 88.4801C81.207 88.2484 81.3648 87.9356 81.3648 87.5415C81.3648 87.1633 81.244 86.8481 81.0023 86.5959C80.759 86.3437 80.3661 86.2176 79.8236 86.2176C79.3304 86.2176 78.9276 86.365 78.6152 86.6597C78.3029 86.956 78.1467 87.3879 78.1467 87.9553ZM85.927 90.8159V87.8962H87.012V90.8632C87.012 91.5015 87.1147 91.9468 87.3202 92.199C87.5258 92.4511 87.9039 92.5772 88.4546 92.5772H89.7493V87.8962H90.8343V93.2865C90.8343 94.2716 90.5647 95.0139 90.0255 95.5135C89.4879 96.0147 88.6437 96.2653 87.4929 96.2653H86.6051V95.2724H87.3819C88.8862 95.2724 89.6753 94.705 89.7493 93.5702H88.7135C87.6367 93.5702 86.9027 93.3889 86.5114 93.0264C86.1218 92.6639 85.927 91.9271 85.927 90.8159ZM100.067 88.0853V93.5702H98.908V88.1326C98.908 87.2027 99.1686 86.4777 99.6898 85.9575C100.213 85.4374 100.905 85.1774 101.769 85.1774C102.689 85.1774 103.402 85.4295 103.907 85.9339C104.413 86.4383 104.666 87.0805 104.666 87.8607C104.666 88.3493 104.573 88.7749 104.388 89.1374C104.203 89.4999 103.955 89.7796 103.643 89.9766C103.33 90.1737 102.997 90.3194 102.644 90.414C102.291 90.5086 101.921 90.5559 101.534 90.5559H100.61V89.5156H101.67C102.221 89.5156 102.654 89.3557 102.97 89.0357C103.287 88.7173 103.445 88.3178 103.445 87.8371C103.445 87.3642 103.299 86.9757 103.007 86.6715C102.716 86.3689 102.299 86.2176 101.756 86.2176C101.23 86.2176 100.817 86.3886 100.516 86.7306C100.217 87.0742 100.067 87.5258 100.067 88.0853ZM107.697 91.3242V85.2956H108.807V91.3242C108.807 91.6079 108.842 91.838 108.913 92.0146C108.982 92.1927 109.09 92.3188 109.238 92.3928C109.386 92.4685 109.53 92.5181 109.67 92.5418C109.809 92.5654 109.994 92.5772 110.225 92.5772V93.5702C109.304 93.5702 108.653 93.4008 108.271 93.0619C107.888 92.723 107.697 92.1438 107.697 91.3242ZM116.18 90.2367V91.3006C115.868 91.072 115.485 90.9578 115.033 90.9578C114.647 90.9578 114.347 91.0303 114.133 91.1753C113.919 91.3219 113.813 91.5291 113.813 91.7971C113.813 92.3172 114.215 92.5772 115.021 92.5772H116.649V90.3194C116.649 89.3659 116.164 88.8891 115.194 88.8891H113.221V87.8962H115.255C116.053 87.8962 116.665 88.0853 117.092 88.4636C117.52 88.8418 117.734 89.3856 117.734 90.0949V93.5702H114.984C114.285 93.5702 113.73 93.4205 113.319 93.121C112.908 92.8215 112.703 92.3842 112.703 91.8089C112.703 91.2336 112.921 90.7962 113.356 90.4968C113.792 90.1973 114.339 90.0476 114.996 90.0476C115.366 90.0476 115.761 90.1106 116.18 90.2367ZM120.764 90.8159V87.8962H121.849V90.8632C121.849 91.5015 121.952 91.9468 122.158 92.199C122.363 92.4511 122.741 92.5772 123.292 92.5772H124.587V87.8962H125.672V93.2865C125.672 94.2716 125.403 95.0139 124.865 95.5135C124.326 96.0147 123.481 96.2653 122.33 96.2653H121.442V95.2724H122.219C123.723 95.2724 124.513 94.705 124.587 93.5702H123.551C122.474 93.5702 121.741 93.3889 121.351 93.0264C120.96 92.6639 120.764 91.9271 120.764 90.8159ZM131.849 87.778C133.246 87.8331 133.945 88.3887 133.945 89.4447C133.945 90.7608 133.045 91.4188 131.245 91.4188H130.739V90.5086H131.331C131.882 90.5086 132.264 90.4274 132.478 90.2651C132.692 90.1043 132.798 89.8348 132.798 89.4565C132.798 89.2122 132.704 89.0286 132.515 88.9057C132.326 88.7843 132.083 88.7236 131.787 88.7236C131.204 88.7236 130.745 88.9206 130.411 89.3147C130.079 89.7087 129.913 90.1815 129.913 90.7332C129.913 91.3163 130.092 91.7892 130.448 92.1517C130.807 92.5142 131.274 92.6954 131.849 92.6954C132.367 92.6954 132.79 92.5733 133.119 92.329L133.859 93.0264C133.292 93.4677 132.622 93.6884 131.849 93.6884C130.912 93.6884 130.164 93.4244 129.605 92.8964C129.046 92.3684 128.766 91.6867 128.766 90.8514C128.766 89.9215 129.042 89.1689 129.593 88.5936C130.143 88.0183 130.895 87.7464 131.849 87.778ZM137.938 93.5702H136.853V90.3431C136.853 89.4368 137.029 88.8103 137.383 88.4636C137.555 88.2902 137.765 88.1602 138.012 88.0735C138.258 87.9868 138.474 87.9356 138.66 87.9198C138.844 87.904 139.097 87.8962 139.417 87.8962H140.502V88.8891H139.195C139.031 88.8891 138.903 88.8931 138.813 88.9009C138.723 88.9088 138.616 88.9364 138.492 88.9837C138.369 89.031 138.262 89.1058 138.172 89.2083C138.016 89.3974 137.938 89.7757 137.938 90.3431V93.5702ZM145.089 87.8962H147.271V88.8891H145.089C144.851 88.8891 144.645 88.9325 144.472 89.0192C144.3 89.1058 144.214 89.228 144.214 89.3856C144.214 89.4802 144.234 89.5645 144.275 89.6386C144.316 89.7142 144.363 89.7757 144.416 89.823C144.47 89.8703 144.552 89.9191 144.662 89.9696C144.774 90.0216 144.86 90.057 144.921 90.0759C144.984 90.0964 145.245 90.1776 145.705 90.3194C146.166 90.4613 146.507 90.5795 146.729 90.6741C146.951 90.7686 147.121 90.8963 147.239 91.0571C147.359 91.2194 147.436 91.377 147.469 91.5299C147.502 91.6844 147.518 91.8365 147.518 91.9862C147.518 93.0422 146.762 93.5702 145.249 93.5702H143.116V92.5772H145.249C146.022 92.5772 146.408 92.3802 146.408 91.9862C146.408 91.7971 146.295 91.6394 146.068 91.5134C145.843 91.3873 145.567 91.2809 145.242 91.1942C144.918 91.1075 144.593 91.0066 144.268 90.8916C143.944 90.7781 143.669 90.5929 143.442 90.336C143.216 90.0807 143.104 89.7639 143.104 89.3856C143.104 88.9049 143.297 88.5361 143.683 88.2792C144.07 88.0238 144.538 87.8962 145.089 87.8962ZM158.255 87.8962V88.8891H156.837V93.5702H155.727V88.8891H154.889L155.382 87.8962H155.727C155.727 87.0923 156.011 86.4556 156.578 85.9859C157.145 85.5178 157.869 85.2838 158.748 85.2838V86.2767C157.474 86.2767 156.837 86.8165 156.837 87.8962H158.255ZM161.779 88.6409C162.354 88.0656 163.074 87.778 163.937 87.778C164.356 87.778 164.749 87.8544 165.115 88.0073C165.48 88.1617 165.801 88.3729 166.077 88.6409C166.352 88.9088 166.567 89.2217 166.723 89.5795C166.879 89.9388 166.958 90.3234 166.958 90.7332C166.958 91.143 166.882 91.5268 166.731 91.8845C166.578 92.2439 166.366 92.5575 166.094 92.8255C165.823 93.0934 165.503 93.3038 165.133 93.4567C164.763 93.6112 164.364 93.6884 163.937 93.6884C163.501 93.6884 163.101 93.6112 162.736 93.4567C162.369 93.3038 162.05 93.0934 161.779 92.8255C161.508 92.5575 161.296 92.2439 161.145 91.8845C160.992 91.5268 160.916 91.143 160.916 90.7332C160.916 89.8978 161.204 89.2004 161.779 88.6409ZM163.937 88.7709C163.361 88.7709 162.899 88.9522 162.551 89.3147C162.201 89.6772 162.026 90.15 162.026 90.7332C162.026 91.3163 162.201 91.7892 162.551 92.1517C162.899 92.5142 163.361 92.6954 163.937 92.6954C164.52 92.6954 164.985 92.5118 165.33 92.1446C165.675 91.7789 165.848 91.3085 165.848 90.7332C165.848 90.1579 165.675 89.6866 165.33 89.3194C164.985 88.9537 164.52 88.7709 163.937 88.7709ZM171.014 93.5702H169.929V90.3431C169.929 89.4368 170.106 88.8103 170.459 88.4636C170.632 88.2902 170.842 88.1602 171.088 88.0735C171.335 87.9868 171.55 87.9356 171.734 87.9198C171.92 87.904 172.173 87.8962 172.494 87.8962H173.579V88.8891H172.272C172.107 88.8891 171.98 88.8931 171.89 88.9009C171.799 88.9088 171.692 88.9364 171.569 88.9837C171.446 89.031 171.339 89.1058 171.248 89.2083C171.092 89.3974 171.014 89.7757 171.014 90.3431V93.5702ZM182.195 88.0853V93.5702H181.036V88.1326C181.036 87.2027 181.297 86.4777 181.818 85.9575C182.341 85.4374 183.033 85.1774 183.897 85.1774C184.817 85.1774 185.53 85.4295 186.035 85.9339C186.541 86.4383 186.794 87.0805 186.794 87.8607C186.794 88.3493 186.701 88.7749 186.515 89.1374C186.331 89.4999 186.083 89.7796 185.771 89.9766C185.458 90.1737 185.125 90.3194 184.772 90.414C184.419 90.5086 184.049 90.5559 183.662 90.5559H182.738V89.5156H183.798C184.349 89.5156 184.782 89.3557 185.098 89.0357C185.415 88.7173 185.573 88.3178 185.573 87.8371C185.573 87.3642 185.427 86.9757 185.135 86.6715C184.844 86.3689 184.427 86.2176 183.884 86.2176C183.358 86.2176 182.945 86.3886 182.644 86.7306C182.345 87.0742 182.195 87.5258 182.195 88.0853ZM189.825 91.3242V85.2956H190.935V91.3242C190.935 91.6079 190.97 91.838 191.041 92.0146C191.11 92.1927 191.218 92.3188 191.366 92.3928C191.514 92.4685 191.658 92.5181 191.798 92.5418C191.937 92.5654 192.122 92.5772 192.353 92.5772V93.5702C191.432 93.5702 190.781 93.4008 190.399 93.0619C190.016 92.723 189.825 92.1438 189.825 91.3242ZM198.308 90.2367V91.3006C197.996 91.072 197.613 90.9578 197.161 90.9578C196.775 90.9578 196.475 91.0303 196.261 91.1753C196.047 91.3219 195.941 91.5291 195.941 91.7971C195.941 92.3172 196.343 92.5772 197.149 92.5772H198.776V90.3194C198.776 89.3659 198.292 88.8891 197.322 88.8891H195.349V87.8962H197.383C198.181 87.8962 198.793 88.0853 199.22 88.4636C199.648 88.8418 199.862 89.3856 199.862 90.0949V93.5702H197.112C196.413 93.5702 195.858 93.4205 195.447 93.121C195.036 92.8215 194.831 92.3842 194.831 91.8089C194.831 91.2336 195.049 90.7962 195.484 90.4968C195.92 90.1973 196.467 90.0476 197.124 90.0476C197.494 90.0476 197.889 90.1106 198.308 90.2367ZM202.892 90.8159V87.8962H203.977V90.8632C203.977 91.5015 204.08 91.9468 204.286 92.199C204.491 92.4511 204.869 92.5772 205.42 92.5772H206.715V87.8962H207.8V93.2865C207.8 94.2716 207.531 95.0139 206.993 95.5135C206.454 96.0147 205.609 96.2653 204.458 96.2653H203.57V95.2724H204.347C205.851 95.2724 206.641 94.705 206.715 93.5702H205.679C204.602 93.5702 203.869 93.3889 203.479 93.0264C203.088 92.6639 202.892 91.9271 202.892 90.8159ZM213.977 87.778C215.374 87.8331 216.073 88.3887 216.073 89.4447C216.073 90.7608 215.173 91.4188 213.373 91.4188H212.867V90.5086H213.459C214.01 90.5086 214.392 90.4274 214.606 90.2651C214.82 90.1043 214.926 89.8348 214.926 89.4565C214.926 89.2122 214.832 89.0286 214.643 88.9057C214.454 88.7843 214.211 88.7236 213.915 88.7236C213.332 88.7236 212.873 88.9206 212.539 89.3147C212.207 89.7087 212.041 90.1815 212.041 90.7332C212.041 91.3163 212.22 91.7892 212.576 92.1517C212.935 92.5142 213.402 92.6954 213.977 92.6954C214.495 92.6954 214.918 92.5733 215.247 92.329L215.987 93.0264C215.42 93.4677 214.75 93.6884 213.977 93.6884C213.04 93.6884 212.292 93.4244 211.733 92.8964C211.174 92.3684 210.894 91.6867 210.894 90.8514C210.894 89.9215 211.17 89.1689 211.721 88.5936C212.271 88.0183 213.023 87.7464 213.977 87.778ZM220.066 93.5702H218.981V90.3431C218.981 89.4368 219.157 88.8103 219.511 88.4636C219.683 88.2902 219.893 88.1602 220.14 88.0735C220.386 87.9868 220.602 87.9356 220.788 87.9198C220.972 87.904 221.225 87.8962 221.545 87.8962H222.63V88.8891H221.323C221.159 88.8891 221.031 88.8931 220.941 88.9009C220.851 88.9088 220.744 88.9364 220.62 88.9837C220.497 89.031 220.39 89.1058 220.3 89.2083C220.144 89.3974 220.066 89.7757 220.066 90.3431V93.5702ZM227.217 87.8962H229.399V88.8891H227.217C226.979 88.8891 226.773 88.9325 226.6 89.0192C226.428 89.1058 226.342 89.228 226.342 89.3856C226.342 89.4802 226.362 89.5645 226.403 89.6386C226.444 89.7142 226.491 89.7757 226.544 89.823C226.598 89.8703 226.68 89.9191 226.79 89.9696C226.902 90.0216 226.988 90.057 227.049 90.0759C227.112 90.0964 227.373 90.1776 227.833 90.3194C228.294 90.4613 228.635 90.5795 228.857 90.6741C229.079 90.7686 229.249 90.8963 229.367 91.0571C229.487 91.2194 229.564 91.377 229.597 91.5299C229.63 91.6844 229.646 91.8365 229.646 91.9862C229.646 93.0422 228.89 93.5702 227.377 93.5702H225.244V92.5772H227.377C228.15 92.5772 228.536 92.3802 228.536 91.9862C228.536 91.7971 228.423 91.6394 228.196 91.5134C227.971 91.3873 227.695 91.2809 227.37 91.1942C227.046 91.1075 226.721 91.0066 226.396 90.8916C226.072 90.7781 225.797 90.5929 225.57 90.336C225.344 90.0807 225.232 89.7639 225.232 89.3856C225.232 88.9049 225.425 88.5361 225.811 88.2792C226.198 88.0238 226.666 87.8962 227.217 87.8962Z" fill="white"/>
</g>
</g>
</g>
</g>
</g>
</g>
</g>
<path d="M152.646 94.8685C147.416 111.718 136.034 126.199 120.582 135.663C105.129 145.127 86.6391 148.941 68.4939 146.408C50.3488 143.874 33.7614 135.163 21.766 121.867C9.77069 108.571 3.16923 91.5794 3.16923 74.0001C3.16923 56.4207 9.77069 39.429 21.766 26.133C33.7614 12.837 50.3488 4.12564 68.4939 1.59239C86.6391 -0.940865 105.129 2.87335 120.582 12.3373C136.034 21.8013 147.416 36.2824 152.646 53.1316H150.958C145.741 36.7281 134.553 22.6664 119.43 13.5072C104.307 4.34803 86.2563 0.700534 68.564 3.22893C50.8718 5.75733 34.7151 14.2934 23.0361 27.2829C11.3572 40.2723 4.93277 56.851 4.93277 74.0001C4.93277 91.1491 11.3572 107.728 23.0361 120.717C34.7151 133.707 50.8718 142.243 68.564 144.771C86.2563 147.3 104.307 143.652 119.43 134.493C134.553 125.334 145.741 111.272 150.958 94.8685H152.646Z" fill="#FC660B"/>
<defs>
<clipPath id="clip0_38_154">
<rect width="152.646" height="33.2654" fill="white" transform="translate(77 63)"/>
</clipPath>
<clipPath id="clip1_38_154">
<rect width="152.646" height="33.2654" fill="white" transform="translate(77 63)"/>
</clipPath>
<clipPath id="clip2_38_154">
<rect width="152.646" height="33.2654" fill="white" transform="translate(77 63)"/>
</clipPath>
<clipPath id="clip3_38_154">
<rect width="152.646" height="33.2654" fill="white" transform="translate(77 63)"/>
</clipPath>
<clipPath id="clip4_38_154">
<rect width="152.646" height="33.2654" fill="white" transform="translate(77 63)"/>
</clipPath>
<clipPath id="clip5_38_154">
<rect width="152.646" height="17.9417" fill="white" transform="translate(77 63)"/>
</clipPath>
<clipPath id="clip6_38_154">
<rect width="152.646" height="17.9417" fill="white" transform="translate(77 63)"/>
</clipPath>
<clipPath id="clip7_38_154">
<rect width="152.646" height="11.088" fill="white" transform="translate(77 85.1774)"/>
</clipPath>
<clipPath id="clip8_38_154">
<rect width="152.646" height="11.088" fill="white" transform="translate(77 85.1774)"/>
</clipPath>
</defs>
</svg>
